HIERARCHY
ROOT Hips
{
     OFFSET 16.01470 94.68430 -13.78830
     CHANNELS 6 Xposition Yposition Zposition Zrotation Xrotation Yrotation
     JOINT Spine
     {
          OFFSET 0.00000 11.89050 0.00000
          CHANNELS 3 Zrotation Xrotation Yrotation
          JOINT Spine1
          {
               OFFSET 0.00000 25.65740 0.12766
               CHANNELS 3 Zrotation Xrotation Yrotation
               JOINT HEad
               {
                    OFFSET -0.00000 8.73416 0.01134
                    CHANNELS 3 Zrotation Xrotation Yrotation
                    End Site
                    {
                         OFFSET -0.29000 12.77420 2.51395
                    }
               }
               JOINT LeftShoulder1
               {
                    OFFSET 8.99000 -0.36225 -0.22000
                    CHANNELS 3 Zrotation Xrotation Yrotation
                    JOINT LeftArm
                    {
                         OFFSET 10.28270 -0.00338 0.32212
                         CHANNELS 3 Zrotation Xrotation Yrotation
                         JOINT LeftForeArm
                         {
                              OFFSET 32.76690 0.09914 -1.42434
                              CHANNELS 3 Zrotation Xrotation Yrotation
                              JOINT LeftHand
                              {
                                   OFFSET 27.56430 0.08536 1.02216
                                   CHANNELS 3 Zrotation Xrotation Yrotation
                                   End Site
                                   {
                                        OFFSET 16.74430 -0.60000 1.50291
                                   }
                              }
                         }
                    }
               }
               JOINT RightShoulder
               {
                    OFFSET -8.99000 -0.36225 -0.22000
                    CHANNELS 3 Zrotation Xrotation Yrotation
                    JOINT RightArm
                    {
                         OFFSET -10.28270 -0.00338 0.32212
                         CHANNELS 3 Zrotation Xrotation Yrotation
                         JOINT RightForeArm
                         {
                              OFFSET -32.89710 0.09914 -1.42434
                              CHANNELS 3 Zrotation Xrotation Yrotation
                              JOINT RightHand
                              {
                                   OFFSET -27.49210 0.08536 1.02216
                                   CHANNELS 3 Zrotation Xrotation Yrotation
                                   End Site
                                   {
                                        OFFSET -16.63120 -0.60000 1.50291
                                   }
                              }
                         }
                    }
               }
          }
     }
     JOINT LeftUpLeg
     {
          OFFSET 8.94580 -8.66707 0.10165
          CHANNELS 3 Zrotation Xrotation Yrotation
          JOINT LeftLeg
          {
               OFFSET -0.00000 -44.42270 1.37270
               CHANNELS 3 Zrotation Xrotation Yrotation
               JOINT LeftFoot
               {
                    OFFSET -0.25355 -42.09240 -1.46059
                    CHANNELS 3 Zrotation Xrotation Yrotation
                    JOINT LeftToes
                    {
                         OFFSET -0.04000 -4.41509 8.49910
                         CHANNELS 3 Zrotation Xrotation Yrotation
                         End Site
                         {
                              OFFSET 0.08000 -0.04745 9.77979
                         }
                    }
               }
          }
     }
     JOINT RightUpLeg
     {
          OFFSET -8.94580 -8.66707 0.10165
          CHANNELS 3 Zrotation Xrotation Yrotation
          JOINT RightLeg
          {
               OFFSET -0.00000 -44.42270 1.37270
               CHANNELS 3 Zrotation Xrotation Yrotation
               JOINT RightFoot
               {
                    OFFSET 0.25355 -42.09240 -1.46059
                    CHANNELS 3 Zrotation Xrotation Yrotation
                    JOINT RightToes
                    {
                         OFFSET 0.04000 -4.41509 8.49910
                         CHANNELS 3 Zrotation Xrotation Yrotation
                         End Site
                         {
                              OFFSET -0.08000 -0.13745 9.77979
                         }
                    }
               }
          }
     }
}
MOTION
Frames: 14
Frame Time: 0.01667
20.70050 94.14560 -6.98110 -5.83269 -4.58754 -27.63250 1.95952 5.40454 -0.12169 1.76800 10.93800 -0.11897 2.07407 -9.79653 13.14180 -0.00000 -0.00000 0.00000 -90.50750 -46.00480 -68.34280 5.73926 36.11100 -99.84080 27.26370 10.19170 5.58553 13.98490 1.05483 3.68305 75.86030 -18.10930 76.12290 11.36760 32.09380 85.25180 0.74802 10.08830 10.38340 18.97260 -22.59510 9.18011 -2.44774 31.68330 10.93510 -9.67261 10.00890 1.41263 -26.30570 -24.40020 -16.99210 -6.37941 -10.33830 0.54717 -8.54750 40.74360 13.91490 3.23343 -21.88250 0.14613 -2.35835 -5.92420 -6.66544 
21.33100 94.16380 -6.44057 -5.94955 -4.38319 -28.08540 2.01904 5.44912 -0.09096 1.82214 11.02200 -0.03854 2.02410 -9.84405 13.34090 -0.00000 -0.00000 0.00000 -90.24510 -45.77530 -68.28040 6.42340 35.83910 -99.94760 27.34270 10.31700 6.12001 14.00040 1.06329 3.72901 76.07500 -17.69860 76.31960 11.32720 32.18190 85.57230 0.75033 10.08690 10.25090 18.85810 -22.76100 9.16996 -2.71517 32.29150 11.60980 -8.97293 10.08190 1.30982 -28.08430 -25.70370 -18.04490 -6.75602 -10.87890 0.74339 -8.02039 41.54060 13.14320 4.49984 -22.27330 0.32196 -1.28887 -1.43431 -7.52969 
21.91350 94.21210 -5.95253 -6.05786 -4.17143 -28.50590 2.10196 5.46719 -0.03066 1.89635 11.05430 0.09981 1.91696 -9.81451 13.44140 -0.00000 -0.00000 0.00000 -89.77560 -45.42950 -68.02210 6.89445 35.52150 -99.79380 27.40150 10.41220 6.52406 14.06210 1.06527 3.72255 76.14140 -17.36640 76.41880 11.20930 32.24410 85.89450 0.79236 10.08990 10.08280 18.73750 -22.90140 9.23039 -2.88997 32.79520 12.06700 -8.36970 9.90620 1.20466 -29.06110 -26.53860 -18.45480 -7.11442 -11.47300 0.91731 -7.30862 42.32870 11.89020 5.64019 -22.27670 0.47245 -0.30633 2.24287 -7.75851 
22.44000 94.29180 -5.51774 -6.15466 -3.96816 -28.86850 2.20384 5.47480 0.03518 1.99313 11.06600 0.24801 1.78677 -9.76549 13.53040 -0.00000 -0.00000 0.00000 -89.20360 -45.03360 -67.66760 7.00128 35.20310 -99.31300 27.41270 10.45070 6.68782 14.09860 1.06097 3.68633 76.08910 -17.07600 76.47170 10.92640 32.26200 86.21520 0.82987 10.09300 9.96330 18.60210 -23.00080 9.34063 -2.96308 33.17090 12.32160 -7.95601 9.55665 1.11924 -29.30450 -26.89280 -18.37590 -7.44756 -12.06160 1.10127 -6.39397 43.06410 10.13200 6.62553 -21.98790 0.58676 0.53854 5.21667 -7.47149 
22.90470 94.39570 -5.13281 -6.24328 -3.79071 -29.15010 2.31560 5.49134 0.07893 2.10596 11.09670 0.34803 1.66361 -9.76035 13.68550 -0.00000 -0.00000 0.00000 -88.64140 -44.69290 -67.33340 6.68420 34.91840 -98.53900 27.32830 10.41920 6.56043 14.04490 1.05368 3.65865 75.99250 -16.78260 76.53930 10.46990 32.24130 86.50600 0.83241 10.09290 9.93592 18.43950 -23.04570 9.48741 -2.91152 33.40190 12.39160 -7.74392 9.20512 1.06591 -29.17610 -26.90850 -18.16820 -7.74019 -12.57680 1.25209 -5.34660 43.68730 7.98679 7.33335 -21.48140 0.64749 1.14058 7.27199 -6.79434 
23.30250 94.51350 -4.79391 -6.32596 -3.64447 -29.33700 2.43004 5.52133 0.08763 2.22149 11.15700 0.37207 1.56145 -9.80079 13.91220 -0.00000 -0.00000 0.00000 -88.18050 -44.49240 -67.09140 6.02380 34.70090 -97.63330 27.10290 10.32820 6.18550 13.89230 1.04783 3.66832 75.91290 -16.48460 76.65330 9.92659 32.20360 86.74380 0.82784 10.09250 9.94559 18.24080 -23.04110 9.66398 -2.71508 33.49240 12.28530 -7.67780 8.98085 1.04261 -29.03290 -26.79120 -18.10160 -7.97360 -12.97210 1.27641 -4.30197 44.14880 5.69281 7.61207 -20.86220 0.64304 1.43647 8.22790 -5.88848 
23.62900 94.64070 -4.49921 -6.39399 -3.52251 -29.42690 2.53811 5.55386 0.06862 2.31710 11.22620 0.33572 1.49435 -9.85087 14.15300 -0.00000 -0.00000 0.00000 -87.87630 -44.44280 -66.96950 5.21317 34.58080 -96.81970 26.74410 10.20780 5.68293 13.70100 1.04715 3.72112 75.85290 -16.23260 76.81250 9.38921 32.17250 86.94960 0.85737 10.09550 9.89980 18.00390 -23.00180 9.83354 -2.40659 33.44810 12.05390 -7.67390 8.90878 1.03769 -29.02040 -26.68140 -18.21850 -8.14316 -13.23740 1.09068 -3.40439 44.43740 3.54483 7.45408 -20.33340 0.59160 1.50072 8.34289 -5.01361 
23.88480 94.78240 -4.24717 -6.43527 -3.41273 -29.42460 2.63410 5.57305 0.03830 2.37523 11.27280 0.27500 1.47342 -9.87559 14.33220 -0.00000 -0.00000 0.00000 -87.74670 -44.50230 -66.97140 4.46308 34.57350 -96.28200 26.31800 10.09160 5.18653 13.54240 1.05243 3.80139 75.79430 -16.08050 76.99570 8.88701 32.17740 87.18920 0.92229 10.10140 9.75646 17.73780 -22.93490 9.91850 -2.08553 33.26530 11.81090 -7.65096 8.92627 1.03542 -29.05520 -26.58540 -18.38810 -8.26181 -13.38670 0.66920 -2.75178 44.58560 1.80637 7.10310 -20.18780 0.54304 1.53225 8.38822 -4.49239 
24.07480 94.94750 -4.03522 -6.44540 -3.30629 -29.34070 2.72095 5.56353 0.01288 2.39938 11.26490 0.22600 1.47951 -9.83110 14.38910 -0.00000 -0.00000 0.00000 -87.76210 -44.61550 -67.06320 3.91080 34.66760 -96.10060 25.91390 10.00210 4.79448 13.44790 1.06073 3.88162 75.72680 -16.05500 77.16130 8.41615 32.24490 87.54510 0.99551 10.10690 9.52822 17.46390 -22.83220 9.83204 -1.87427 32.93590 11.69330 -7.55044 8.95827 1.02278 -28.98880 -26.44870 -18.45960 -8.35183 -13.43190 0.06764 -2.32589 44.62370 0.57381 6.83996 -20.57580 0.53511 1.65743 8.89174 -4.52385 
24.20380 95.13710 -3.86116 -6.42267 -3.20377 -29.19810 2.80331 5.51308 0.00840 2.40150 11.17720 0.22264 1.46977 -9.67851 14.30130 -0.00000 -0.00000 0.00000 -87.85770 -44.72510 -67.17700 3.59307 34.83330 -96.25260 25.61320 9.94812 4.55204 13.42130 1.06809 3.93523 75.61940 -16.16000 77.25940 7.99550 32.37150 88.07570 1.05335 10.10940 9.24634 17.20340 -22.67850 9.54985 -1.83931 32.46030 11.76960 -7.35965 8.98617 0.99673 -28.77760 -26.26880 -18.37080 -8.44032 -13.37660 -0.59709 -2.00467 44.54630 -0.24968 6.77186 -21.32950 0.56902 1.81226 9.55605 -4.97148 
24.27320 95.34220 -3.72309 -6.36260 -3.10973 -29.02560 2.88178 5.41970 0.03682 2.38453 11.00520 0.28846 1.41275 -9.42931 14.08740 -0.00000 -0.00000 0.00000 -87.98670 -44.78040 -67.26680 3.47046 35.03960 -96.64790 25.46260 9.92500 4.44648 13.46400 1.07206 3.94617 75.42580 -16.37220 77.27360 7.66136 32.51710 88.78900 1.08488 10.10840 8.94823 16.96410 -22.47160 9.15950 -1.93242 31.86080 11.94870 -7.13278 9.02823 0.96613 -28.45240 -26.09490 -18.10480 -8.55322 -13.23220 -1.20037 -1.66302 44.34880 -0.80298 6.97474 -22.17630 0.64280 1.89199 9.91680 -5.49993 
24.28000 95.55030 -3.62047 -6.26420 -3.02675 -28.84070 2.94875 5.29779 0.09883 2.35012 10.77710 0.42177 1.28711 -9.13268 13.79320 -0.00000 -0.00000 0.00000 -88.14540 -44.75740 -67.34010 3.46134 35.26300 -97.17280 25.45080 9.92061 4.42620 13.55630 1.07126 3.91223 75.15490 -16.63160 77.24640 7.44317 32.63730 89.64220 1.10115 10.10570 8.66225 16.74090 -22.22920 8.80572 -2.02778 31.18540 12.02720 -6.98038 9.07352 0.94642 -27.98210 -25.92860 -17.60900 -8.70748 -13.02090 -1.66452 -1.23389 44.06070 -1.13713 7.58782 -22.99040 0.77492 1.89903 9.98620 -5.97447 
24.22190 95.75090 -3.55656 -6.13937 -2.95640 -28.64750 2.99173 5.17149 0.18440 2.31259 10.53920 0.59699 1.07780 -8.82504 13.47650 -0.00000 -0.00000 0.00000 -88.34490 -44.67690 -67.42320 3.46795 35.49550 -97.72110 25.51220 9.92454 4.44408 13.64340 1.06491 3.84648 74.90280 -16.86830 77.25350 7.36307 32.72210 90.56000 1.14421 10.10600 8.38911 16.53470 -21.97270 8.57660 -2.03580 30.48280 11.87580 -6.99480 9.08762 0.94929 -27.30190 -25.70270 -16.86340 -8.89933 -12.75630 -1.96202 -0.68849 43.71050 -1.27392 8.64766 -23.73120 0.97667 1.87515 9.94681 -6.53802 
24.10260 95.93620 -3.53758 -6.00914 -2.89237 -28.44920 3.00610 5.05769 0.28282 2.29097 10.32370 0.78782 0.79871 -8.51653 13.17880 -0.00000 -0.00000 0.00000 -88.57710 -44.57900 -67.52560 3.41882 35.73900 -98.21310 25.56310 9.93233 4.47970 13.67550 1.05349 3.76725 74.77600 -17.03870 77.35550 7.42149 32.79580 91.46740 1.24716 10.11270 8.11694 16.36950 -21.72100 8.47216 -1.96096 29.78400 11.52670 -7.17658 9.05291 0.97389 -26.42550 -25.35970 -15.94970 -9.09946 -12.44420 -2.07231 -0.00357 43.28420 -1.32828 10.01330 -24.30090 1.22549 1.79797 9.73995 -7.35493 
